<svg width="32" height="32" viewBox="0 0 32 32" fill="none" xmlns="http://www.w3.org/2000/svg">
<path fill-rule="evenodd" clip-rule="evenodd" d="M26.875 30.5H5.125C3.124 30.5 1.5 28.876 1.5 26.875V5.125C1.5 3.124 3.124 1.5 5.125 1.5H26.875C28.876 1.5 30.5 3.124 30.5 5.125V26.875C30.5 28.876 28.876 30.5 26.875 30.5ZM19.068 10.5379H24.0739V11.7566H19.068V10.5379ZM19.5704 18.1793H26.0228C26.0691 17.4855 26.0128 16.8228 25.852 16.1885C25.6899 15.5531 25.4307 14.9867 25.0662 14.4914C24.7017 13.9952 24.2377 13.5988 23.6717 13.3064C23.1039 13.0098 22.4412 12.8642 21.6847 12.8642C20.9995 12.8642 20.3809 12.986 19.8199 13.2281C19.2589 13.471 18.7772 13.8037 18.371 14.2253C17.9657 14.6445 17.6575 15.1443 17.4344 15.7236C17.216 16.3009 17.1043 16.9256 17.1043 17.5942C17.1043 18.2857 17.2119 18.9238 17.4253 19.5002C17.641 20.0798 17.9437 20.573 18.3334 20.9904C18.7332 21.4057 19.2085 21.7244 19.7773 21.9518C20.3466 22.1764 20.9804 22.2905 21.6847 22.2905C22.6953 22.2905 23.5628 22.059 24.2739 21.5944C24.9934 21.1318 25.5209 20.3634 25.8685 19.287H23.7056C23.6218 19.5638 23.4052 19.8304 23.0494 20.0797C22.6903 20.3293 22.2622 20.4545 21.7667 20.4545C21.0779 20.4545 20.5462 20.2739 20.1786 19.9146C19.8094 19.5554 19.5704 18.8861 19.5704 18.1793ZM21.611 14.7188C21.2185 14.7188 20.8938 14.7847 20.6338 14.9194C20.3796 15.0522 20.1712 15.2174 20.0119 15.4121C19.8534 15.6099 19.7453 15.8187 19.6826 16.042C19.6195 16.2595 19.5819 16.4569 19.5704 16.6314H23.5665C23.5079 16.0052 23.2935 15.5422 23.0005 15.2166C22.7087 14.8935 22.2141 14.7188 21.611 14.7188ZM14.9661 21.2106C15.3719 20.9235 15.7012 20.5515 15.943 20.0923C16.1825 19.639 16.3024 19.0998 16.3025 18.4735C16.3025 17.7009 16.1189 17.042 15.7438 16.4913C15.3706 15.9443 14.8077 15.5596 14.0476 15.3412C14.6058 15.0772 15.0234 14.7371 15.3078 14.3227C15.5899 13.9075 15.731 13.3883 15.731 12.7666C15.731 12.1919 15.6366 11.7058 15.4484 11.3176C15.2556 10.9235 14.9863 10.6108 14.6424 10.3756C14.293 10.1405 13.8795 9.96896 13.395 9.86615C12.9077 9.76054 12.3747 9.70949 11.7839 9.70949H5.96154V22.059H11.9473C12.5006 22.059 13.0409 21.9894 13.5611 21.8511C14.0873 21.7127 14.5572 21.5003 14.9661 21.2106ZM13.0547 16.9602C12.698 16.6896 12.2222 16.555 11.6369 16.555H8.68085V19.9557H11.5824C11.8508 19.9557 12.1053 19.9319 12.3449 19.8783C12.588 19.8251 12.8037 19.7409 12.9855 19.6163C13.1674 19.4966 13.318 19.3324 13.4275 19.1236C13.5374 18.9166 13.59 18.6478 13.59 18.3231C13.59 17.6865 13.411 17.2348 13.0547 16.9602ZM13.0931 13.2296C13.0931 13.7471 12.9415 14.1244 12.6287 14.3527C12.3128 14.5846 11.9139 14.6989 11.4321 14.6989H8.68072V11.8132H11.2246C11.4651 11.8132 11.7 11.8303 11.9239 11.8741C12.152 11.9132 12.3485 11.9858 12.5225 12.0909C12.6979 12.1919 12.8366 12.3361 12.9415 12.5204C13.0428 12.7047 13.0931 12.9422 13.0931 13.2296Z" fill="black"/>
</svg>
