<svg width="24" height="24" viewBox="0 0 24 24" fill="none" xmlns="http://www.w3.org/2000/svg">
<path fill-rule="evenodd" clip-rule="evenodd" d="M5.91236 3.36741C6.2092 3.12968 6.56541 3 6.92701 3C7.28862 3 7.64483 3.12968 7.94167 3.36741L7.98485 3.38903L8.00644 3.41064L10.7698 6.2635L10.8345 6.32834L10.8129 6.34995C11.4255 6.91998 11.4147 7.88714 10.8345 8.46798L9.45287 9.85118C9.66605 10.3375 10.2435 11.5802 11.3742 12.6608C12.513 13.7495 13.7031 14.3655 14.2023 14.6059L15.584 13.2227C16.1561 12.65 17.1707 12.65 17.7428 13.2227L17.7644 13.266L20.5709 16.0756C21.143 16.6483 21.143 17.6425 20.5709 18.2152L18.3905 20.3981C17.7428 20.9546 16.8334 21.1546 15.9942 20.8736H15.9726C14.3508 20.2387 11.072 18.7988 8.13597 15.8595C5.21073 12.931 3.71303 9.69179 3.12744 8.01412C3.12609 8.01141 3.12677 8.00736 3.12744 8.00331C3.12812 7.99926 3.12879 7.9952 3.12744 7.9925C2.8387 7.19554 3.04379 6.2743 3.71033 5.65835L3.68874 5.63673L5.84759 3.41064L5.86918 3.38903L5.91236 3.36741ZM7.07813 4.44804C7.02956 4.40752 6.97829 4.3832 6.92701 4.3832C6.87574 4.3832 6.82447 4.40752 6.7759 4.44804L4.68181 6.58769L4.63864 6.63091C4.39307 6.84163 4.31751 7.25768 4.42275 7.53864C4.94627 9.04612 6.37381 12.1502 9.10745 14.8869C11.8195 17.602 14.8608 18.9393 16.4259 19.5552C16.828 19.6903 17.1653 19.6336 17.4838 19.3607L19.5994 17.2427C19.6588 17.1832 19.6885 17.1643 19.6885 17.1454C19.6885 17.1265 19.6588 17.1076 19.5994 17.0482L16.7714 14.2169C16.712 14.1575 16.6877 14.1278 16.6634 14.1278C16.6391 14.1278 16.6148 14.1575 16.5555 14.2169L14.5046 16.2701L14.0728 16.0756C14.0728 16.0756 12.1811 15.2732 10.5755 13.8063L10.4243 13.6766C8.75664 12.0854 7.96326 9.95925 7.96326 9.95925L7.81214 9.527L8.13597 9.22442L9.86305 7.49541C9.93426 7.42413 9.91161 7.36067 9.90662 7.34669C9.90575 7.34425 9.90542 7.34332 9.90622 7.34413L9.84146 7.27929L7.07813 4.44804Z" fill="black"/>
</svg>
