<svg width="32" height="32" viewBox="0 0 32 32" fill="none" xmlns="http://www.w3.org/2000/svg">
<path fill-rule="evenodd" clip-rule="evenodd" d="M22.4477 3.50657C20.8624 3.58256 19.3379 4.27411 18.1594 5.45202L13.5365 10.0725C14.2626 9.34292 16.958 9.84448 17.6119 10.498L20.41 7.70144C21.0297 7.08209 21.8052 6.70212 22.5998 6.66792C23.1396 6.64132 23.9037 6.75532 24.5766 7.42786C25.2039 8.05481 25.337 8.78436 25.337 9.28212C25.337 10.1143 24.9568 10.9426 24.3029 11.5923L19.4367 16.4864C18.2126 17.7099 16.3498 17.8087 15.2701 16.7295C14.6542 16.114 13.6391 16.1102 13.0195 16.7295C12.3998 17.3489 12.3998 18.3596 13.0195 18.979C14.1296 20.0885 15.5894 20.6508 17.0949 20.6508C18.722 20.6508 20.3834 19.9859 21.6569 18.7054L26.5535 13.8418C27.7967 12.6031 28.5 10.9464 28.5 9.28212C28.5 7.73564 27.9145 6.26515 26.8273 5.17844C25.6639 4.01573 24.1014 3.43057 22.4477 3.50657ZM14.9051 11.3492C13.278 11.3492 11.59 12.0179 10.3127 13.2946L5.44647 18.1582C4.20331 19.3969 3.5 21.0536 3.5 22.7179C3.5 24.2644 4.08546 25.7348 5.17275 26.8216C6.33607 27.9843 7.89857 28.5694 9.55231 28.4934C11.1376 28.4174 12.6621 27.7259 13.8406 26.548L18.4635 21.9275C17.7336 22.6571 15.042 22.1555 14.3881 21.502L11.59 24.2986C10.9703 24.9179 10.1948 25.2941 9.40024 25.3321C8.8604 25.3587 8.09626 25.2447 7.42336 24.5721C6.79608 23.9452 6.66302 23.2118 6.66302 22.7179C6.66302 21.8857 7.04319 21.0574 7.69708 20.4077L12.5633 15.5136C13.7874 14.2901 15.6502 14.1951 16.7299 15.2705C17.3496 15.8898 18.3647 15.8898 18.9805 15.2705C19.6002 14.6511 19.6002 13.6404 18.9805 13.021C17.8704 11.9115 16.4068 11.3492 14.9051 11.3492Z" fill="black"/>
</svg>
