<svg width="24" height="24" viewBox="0 0 24 24" fill="none" xmlns="http://www.w3.org/2000/svg">
<path fill-rule="evenodd" clip-rule="evenodd" d="M10.5712 3C9.3723 3 8.38462 3.98768 8.38462 5.1866V5.92308H4V7.38462H5.46154V19.8077C5.46154 21.0123 6.44922 22 7.65385 22H16.4231C17.6277 22 18.6154 21.0123 18.6154 19.8077V7.38462H20.0769V5.92308H15.6923V5.1866C15.6923 3.98768 14.7046 3 13.5057 3H10.5712ZM10.5712 4.46154H13.5057C13.9168 4.46154 14.2308 4.77554 14.2308 5.1866V5.92308H9.84615V5.1866C9.84615 4.77554 10.1602 4.46154 10.5712 4.46154ZM6.92308 7.38462H17.1538V19.8077C17.1538 20.2187 16.8341 20.5385 16.4231 20.5385H7.65385C7.24279 20.5385 6.92308 20.2187 6.92308 19.8077V7.38462ZM8.38462 8.84615V19.0769H9.84615V8.84615H8.38462ZM11.3077 8.84615V19.0769H12.7692V8.84615H11.3077ZM14.2308 8.84615V19.0769H15.6923V8.84615H14.2308Z" fill="black"/>
</svg>
