<svg width="32" height="32" viewBox="0 0 32 32" fill="none" xmlns="http://www.w3.org/2000/svg">
<path fill-rule="evenodd" clip-rule="evenodd" d="M5.125 30.5H26.875C28.876 30.5 30.5 28.876 30.5 26.875V5.125C30.5 3.124 28.876 1.5 26.875 1.5H5.125C3.124 1.5 1.5 3.124 1.5 5.125V26.875C1.5 28.876 3.124 30.5 5.125 30.5ZM7.5 16.4949C7.5 21.4566 11.5332 25.5 16.4949 25.5C21.4566 25.5 25.5 21.4566 25.5 16.4949C25.5 11.5332 21.4566 7.5 16.4949 7.5C11.5332 7.5 7.5 11.5332 7.5 16.4949ZM12.3247 22.5509C13.5068 23.375 14.9447 23.8617 16.4949 23.8617C17.2782 23.8617 18.0124 23.7023 18.7242 23.4772C18.5974 21.7532 18.2599 20.0515 17.7487 18.4134C15.6011 19.1803 13.6992 20.6017 12.3247 22.5509ZM16.6319 15.5766C16.8385 16.0081 17.0225 16.4316 17.1985 16.8794C14.7933 17.7343 12.6683 19.3071 11.0956 21.4648C9.88888 20.1538 9.13825 18.4215 9.13825 16.4949C9.89706 16.5993 10.664 16.6953 11.4228 16.6953C13.2348 16.6953 15.0019 16.2966 16.6319 15.5766ZM20.5689 10.3674C19.4032 9.59229 18.0063 9.13819 16.4949 9.13819C15.824 9.13819 15.1921 9.25681 14.5703 9.42452C15.6236 10.6476 16.5583 11.9647 17.3416 13.3718C18.5811 12.6049 19.6752 11.5987 20.5689 10.3674ZM12.9792 10.0729C14.0979 11.3102 15.0654 12.6683 15.8794 14.1143C13.8586 14.9855 11.5905 15.2494 9.34485 14.8342C9.82545 12.7726 11.1753 11.0628 12.9792 10.0729ZM19.3234 17.9654C19.8102 19.5321 20.1313 21.1375 20.2909 22.7757C22.015 21.7286 23.2932 20.0106 23.7105 17.9735C22.2317 17.6852 20.7448 17.677 19.3234 17.9654ZM18.7651 16.407C18.5564 15.8731 18.3336 15.3455 18.0861 14.826C19.5157 13.9711 20.7858 12.8278 21.8248 11.4391C23.0376 12.7235 23.8045 14.4415 23.8454 16.3353C22.1274 16.0327 20.4094 16.0408 18.7651 16.407Z" fill="black"/>
</svg>
