<svg width="32" height="32" viewBox="0 0 32 32" fill="none" xmlns="http://www.w3.org/2000/svg">
<path fill-rule="evenodd" clip-rule="evenodd" d="M28.5549 9.14748C27.2583 6.94868 25.4995 5.20788 23.2781 3.9247C21.0563 2.64146 18.6308 2 15.9999 2C13.3692 2 10.943 2.64166 8.72166 3.9247C6.50004 5.20782 4.74131 6.94868 3.44468 9.14748C2.14825 11.3462 1.5 13.7473 1.5 16.3505C1.5 19.4776 2.42182 22.2896 4.26592 24.7872C6.10982 27.285 8.49187 29.0133 11.4119 29.9725C11.7518 30.0349 12.0034 29.991 12.167 29.8418C12.3306 29.6925 12.4124 29.5054 12.4124 29.2815C12.4124 29.2441 12.4091 28.9079 12.4029 28.2725C12.3964 27.637 12.3933 27.0827 12.3933 26.6097L11.9591 26.684C11.6822 26.7342 11.3329 26.7555 10.9112 26.7495C10.4897 26.7437 10.0522 26.6999 9.59911 26.6186C9.14587 26.5381 8.72431 26.3512 8.33409 26.0585C7.94407 25.7657 7.66719 25.3825 7.50353 24.9095L7.31473 24.4795C7.18889 24.1932 6.99077 23.8752 6.72011 23.5266C6.44945 23.1777 6.17575 22.9412 5.89887 22.8166L5.76669 22.723C5.6786 22.6607 5.59687 22.5857 5.52129 22.4985C5.44577 22.4114 5.38923 22.3243 5.35147 22.2369C5.31365 22.1496 5.34499 22.0779 5.44583 22.0217C5.54668 21.9655 5.72893 21.9382 5.99337 21.9382L6.37083 21.994C6.62258 22.0439 6.93397 22.1931 7.30541 22.4424C7.67665 22.6915 7.98183 23.0153 8.22101 23.4138C8.51065 23.9247 8.85961 24.3139 9.26887 24.5818C9.6778 24.8497 10.0901 24.9834 10.5054 24.9834C10.9207 24.9834 11.2793 24.9523 11.5816 24.8903C11.8834 24.828 12.1666 24.7343 12.4311 24.6098C12.5444 23.7749 12.8528 23.1334 13.3561 22.685C12.6387 22.6104 11.9938 22.498 11.4209 22.3486C10.8484 22.199 10.2568 21.9562 9.64639 21.6195C9.0357 21.2833 8.5291 20.8658 8.12645 20.3677C7.72373 19.8694 7.39323 19.2152 7.1354 18.4057C6.87743 17.5958 6.74842 16.6616 6.74842 15.6028C6.74842 14.0952 7.2457 12.8123 8.24006 11.7533C7.77425 10.6199 7.81823 9.34926 8.37211 7.94159C8.73714 7.82935 9.27846 7.91358 9.99581 8.19377C10.7133 8.47408 11.2386 8.71421 11.5723 8.91331C11.906 9.11233 12.1733 9.28099 12.3748 9.41778C13.5455 9.09401 14.7538 8.93209 15.9997 8.93209C17.2457 8.93209 18.4542 9.09401 19.625 9.41778L20.3425 8.96953C20.8331 8.67043 21.4124 8.39633 22.0791 8.14717C22.7462 7.89814 23.2563 7.82955 23.6089 7.94179C24.1751 9.34952 24.2255 10.6201 23.7596 11.7535C24.7539 12.8125 25.2514 14.0957 25.2514 15.603C25.2514 16.6618 25.1219 17.599 24.8643 18.415C24.6064 19.2312 24.2731 19.8848 23.8642 20.3771C23.4548 20.8693 22.9449 21.2836 22.3346 21.6197C21.7241 21.9561 21.1322 22.1989 20.5597 22.3485C19.9869 22.4982 19.342 22.6106 18.6246 22.6853C19.2789 23.2457 19.6061 24.1302 19.6061 25.3385V29.281C19.6061 29.5049 19.6848 29.6919 19.8423 29.8413C19.9996 29.9905 20.248 30.0344 20.5879 29.9719C23.5083 29.0129 25.8904 27.2845 27.7342 24.7867C29.5779 22.2891 30.5 19.4771 30.5 16.35C30.4993 13.7471 29.8508 11.3462 28.5549 9.14748Z" fill="black"/>
</svg>
