<svg width="24" height="24" viewBox="0 0 24 24" fill="none" xmlns="http://www.w3.org/2000/svg">
<path fill-rule="evenodd" clip-rule="evenodd" d="M22 12C22 6.48812 17.5119 2 12 2C6.48812 2 2 6.48812 2 12C2 17.5119 6.48812 22 12 22C17.5119 22 22 17.5119 22 12ZM3.6 12C3.6 7.37177 7.37177 3.6 12 3.6C16.6282 3.6 20.4 7.37177 20.4 12C20.4 16.6282 16.6282 20.4 12 20.4C7.37177 20.4 3.6 16.6282 3.6 12ZM11.0741 6.44444V8.2963H12.9259V6.44444H11.0741ZM11.0741 16.6296V10.1481H12.9259V16.6296H11.0741Z" fill="black"/>
</svg>
