<svg width="24" height="24" viewBox="0 0 24 24" fill="none" xmlns="http://www.w3.org/2000/svg">
<path fill-rule="evenodd" clip-rule="evenodd" d="M13.4699 17.6139C13.5375 17.5523 13.5375 17.5523 13.6051 17.4906C13.9258 17.1976 14.2227 16.924 14.4912 16.6737C14.5815 16.5896 15.4304 15.821 15.7393 15.5323C16.3323 14.9782 16.8588 14.4529 17.3539 13.9096C19.1724 11.9141 20.2 10.0542 20.2 8.5C20.2 6.45611 18.5439 4.8 16.5 4.8C15.6227 4.8 14.8525 5.07063 14.1813 5.53022C13.7815 5.80393 13.5208 6.06497 13.4276 6.18632L12 8.04533L10.5724 6.18632C10.4792 6.06497 10.2185 5.80393 9.81871 5.53022C9.14746 5.07063 8.37734 4.8 7.5 4.8C5.45611 4.8 3.8 6.45611 3.8 8.5C3.8 10.0542 4.8276 11.9141 6.64615 13.9096C7.14122 14.4529 7.6677 14.9782 8.26066 15.5323C8.5696 15.821 9.41854 16.5896 9.50834 16.6733C9.77727 16.924 10.0742 17.1976 10.3949 17.4906C10.4625 17.5523 10.4625 17.5523 10.5301 17.6139C10.9998 18.0419 11.4972 18.4905 12 18.9406C12.5028 18.4905 13.0002 18.0419 13.4699 17.6139ZM10.5724 3.99368H10.7595C11.572 4.53271 12 5.09 12 5.09C12 5.09 12.428 4.53271 13.2405 3.99368H13.4276C13.4075 3.96747 13.3864 3.94074 13.3645 3.91353C14.1189 3.43834 15.1742 3 16.5 3C19.538 3 22 5.462 22 8.5C22 12.671 17.088 16.713 15.719 17.99C14.142 19.46 12 21.35 12 21.35C12 21.35 9.858 19.46 8.281 17.99C6.912 16.713 2 12.671 2 8.5C2 5.462 4.462 3 7.5 3C8.82581 3 9.88107 3.43834 10.6355 3.91353C10.6136 3.94074 10.5925 3.96747 10.5724 3.99368Z" fill="black"/>
</svg>
