<svg width="24" height="24" viewBox="0 0 24 24" fill="none" xmlns="http://www.w3.org/2000/svg">
<path fill-rule="evenodd" clip-rule="evenodd" d="M2.30001 11.9998C2.30001 9.40924 3.30927 6.97271 5.14109 5.14088C6.97291 3.30906 9.40944 2.2998 12 2.2998C14.5906 2.2998 17.0271 3.30906 18.8589 5.14088C20.6908 6.97271 21.7 9.40924 21.7 11.9998C21.7 14.5904 20.6908 17.0269 18.8589 18.8588C17.0271 20.6906 14.5906 21.6998 12 21.6998C10.1729 21.6998 8.40589 21.1937 6.86594 20.2307L2.22076 21.779L3.76914 17.1339C2.80616 15.5939 2.30001 13.8269 2.30001 11.9998ZM7.00558 18.5236L7.18167 18.5482L7.42244 18.7128C8.77411 19.6364 10.3567 20.1245 12 20.1245C16.4798 20.1245 20.1248 16.4796 20.1248 11.9998C20.1248 7.51998 16.4798 3.87506 12 3.87506C7.52018 3.87506 3.87527 7.51998 3.87527 11.9998C3.87527 13.6431 4.36339 15.2257 5.28707 16.5774L5.45157 16.8182L5.47616 16.9943L4.71146 19.2883L7.00558 18.5236Z" fill="black"/>
</svg>
