<svg width="24" height="24" viewBox="0 0 24 24" fill="none" xmlns="http://www.w3.org/2000/svg">
<path fill-rule="evenodd" clip-rule="evenodd" d="M4.4 13.8C5.44934 13.8 6.3 12.9493 6.3 11.9C6.3 10.8507 5.44934 10 4.4 10C3.35066 10 2.5 10.8507 2.5 11.9C2.5 12.9493 3.35066 13.8 4.4 13.8ZM12 13.8C13.0493 13.8 13.9 12.9493 13.9 11.9C13.9 10.8507 13.0493 10 12 10C10.9507 10 10.1 10.8507 10.1 11.9C10.1 12.9493 10.9507 13.8 12 13.8ZM21.5 11.9C21.5 12.9493 20.6493 13.8 19.6 13.8C18.5507 13.8 17.7 12.9493 17.7 11.9C17.7 10.8507 18.5507 10 19.6 10C20.6493 10 21.5 10.8507 21.5 11.9Z" fill="black"/>
</svg>
