<svg width="24" height="24" viewBox="0 0 24 24" fill="none" xmlns="http://www.w3.org/2000/svg">
<path fill-rule="evenodd" clip-rule="evenodd" d="M11.6364 2.4502C14.518 2.4502 16.8682 4.80035 16.8682 7.68201C16.8682 10.5637 14.518 12.9138 11.6364 12.9138C8.75471 12.9138 6.40456 10.5637 6.40456 7.68201C6.40456 4.80035 8.75471 2.4502 11.6364 2.4502ZM11.6364 12.8138C16.4207 12.8138 20.3227 16.7158 20.2727 21.5502L18.4955 21.5002C18.4955 17.7022 15.4344 14.6411 11.6364 14.6411C7.83835 14.6411 4.77728 17.7022 4.72728 21.5502L2.95001 21.5002C2.95001 16.7158 6.85201 12.8138 11.6364 12.8138ZM11.6364 4.27747C9.7478 4.27747 8.23183 5.79343 8.23183 7.68201C8.23183 9.57059 9.7478 11.0866 11.6364 11.0866C13.525 11.0866 15.0409 9.57059 15.0409 7.68201C15.0409 5.79343 13.525 4.27747 11.6364 4.27747Z" fill="black"/>
</svg>
