<svg width="24" height="24" viewBox="0 0 24 24" fill="none" xmlns="http://www.w3.org/2000/svg">
<path fill-rule="evenodd" clip-rule="evenodd" d="M11.673 1.5L10.6112 2.5618L12.4989 4.47303C12.3485 4.46419 12.2039 4.44944 12.0506 4.44944C7.89775 4.44944 4.5 7.84719 4.5 12C4.5 13.1326 4.73006 14.1855 5.18427 15.091L6.31685 13.9584C6.16643 13.3538 6.01011 12.6784 6.01011 12C6.01011 8.67893 8.72949 5.95955 12.0506 5.95955C12.1833 5.95955 12.3219 5.9743 12.4517 5.98315L10.6112 7.84719L11.673 8.90899L14.8584 5.74719L15.3775 5.20449L14.8584 4.6618L11.673 1.5ZM18.9169 8.90899L17.7843 10.0416C18.0114 10.6462 18.091 11.3216 18.091 12C18.091 15.3211 15.3716 18.0405 12.0506 18.0405C11.9178 18.0405 11.7792 18.0257 11.6494 18.0169L13.4899 16.1528L12.4281 15.091L9.2427 18.2528L8.7236 18.7955L9.2427 19.3382L12.4281 22.5L13.4899 21.4382L11.6022 19.527C11.7497 19.5358 11.9031 19.5506 12.0506 19.5506C16.2034 19.5506 19.6011 16.1528 19.6011 12C19.6011 10.8674 19.3711 9.81447 18.9169 8.90899Z" fill="black"/>
</svg>
