<svg width="32" height="32" viewBox="0 0 32 32" fill="none" xmlns="http://www.w3.org/2000/svg">
<path fill-rule="evenodd" clip-rule="evenodd" d="M1.5 1.5V30.5H30.5V1.5H1.5ZM10.5145 25.2346C10.0266 25.7183 9.36429 26.0133 8.62705 26.0133C7.89058 26.0133 7.22836 25.7172 6.74371 25.2346C6.25989 24.7511 5.96154 24.0921 5.96154 23.3591C5.96154 22.626 6.25989 21.9648 6.74371 21.4799C7.22944 20.9975 7.89058 20.7 8.62705 20.7C9.36429 20.7 10.0266 20.9975 10.5123 21.481C10.998 21.9667 11.2945 22.626 11.2967 23.3591C11.2945 24.0921 10.998 24.7499 10.5145 25.2346ZM15.3606 26.0385C15.3606 26.0385 15.3606 26.032 15.3595 26.032C15.3553 23.5202 14.376 21.15 12.6048 19.381C10.8338 17.6067 8.46669 16.624 5.96377 16.6218V12.7888C9.61579 12.791 12.9218 14.2756 15.3224 16.6776C17.7221 19.0793 19.2067 22.3861 19.21 26.0385H15.3606ZM22.1957 26.0385C22.189 17.0838 14.9172 9.80012 5.97021 9.79343V5.96154C11.5036 5.96377 16.5142 8.21519 20.1512 11.8522C23.786 15.4892 26.0362 20.5039 26.0385 26.0385H22.1957Z" fill="black"/>
</svg>
