<svg width="24" height="24" viewBox="0 0 24 24" fill="none" xmlns="http://www.w3.org/2000/svg">
<path fill-rule="evenodd" clip-rule="evenodd" d="M10.1935 3L10.0793 3.59375L9.64543 5.76322C8.94892 6.03726 8.32091 6.42263 7.75 6.88221L5.6262 6.15144L5.05529 5.96875L4.75841 6.49399L3.29688 9.00601L3 9.53125L3.43389 9.91947L5.07812 11.3582C5.01818 11.7321 4.94111 12.1061 4.94111 12.5C4.94111 12.8939 5.01818 13.2679 5.07812 13.6418L3.43389 15.0805L3 15.4688L3.29688 15.994L4.75841 18.506L5.05529 19.0312L5.6262 18.8486L7.75 18.1178C8.32091 18.5774 8.94892 18.9627 9.64543 19.2368L10.0793 21.4062L10.1935 22H14.3041L14.4183 21.4062L14.8522 19.2368C15.5487 18.9627 16.1767 18.5774 16.7476 18.1178L18.8714 18.8486L19.4423 19.0312L19.7392 18.506L21.2007 15.994L21.4976 15.4688L21.0637 15.0805L19.4195 13.6418C19.4794 13.2679 19.5565 12.8939 19.5565 12.5C19.5565 12.1061 19.4794 11.7321 19.4195 11.3582L21.0637 9.91947L21.4976 9.53125L21.2007 9.00601L19.7392 6.49399L19.4423 5.96875L18.8714 6.15144L16.7476 6.88221C16.1767 6.42263 15.5487 6.03726 14.8522 5.76322L14.4183 3.59375L14.3041 3H10.1935ZM11.381 4.46154H13.1166L13.482 6.35697L13.5733 6.79087L13.9844 6.92788C14.8151 7.18765 15.5687 7.62725 16.1995 8.20673L16.5192 8.50361L16.9303 8.36659L18.78 7.72716L19.6478 9.21154L18.1863 10.5132L17.8437 10.7873L17.9579 11.2212C18.0521 11.6379 18.095 12.0633 18.095 12.5C18.095 12.9367 18.0521 13.3621 17.9579 13.7788L17.8666 14.2127L18.1863 14.4868L19.6478 15.7885L18.78 17.2728L16.9303 16.6334L16.5192 16.4964L16.1995 16.7933C15.5687 17.3727 14.8151 17.8123 13.9844 18.0721L13.5733 18.2091L13.482 18.643L13.1166 20.5385H11.381L11.0156 18.643L10.9243 18.2091L10.5132 18.0721C9.68254 17.8123 8.92894 17.3727 8.29808 16.7933L7.97837 16.4964L7.56731 16.6334L5.71755 17.2728L4.84976 15.7885L6.3113 14.4868L6.65385 14.2127L6.53966 13.7788C6.44546 13.3621 6.40264 12.9367 6.40264 12.5C6.40264 12.0633 6.44546 11.6379 6.53966 11.2212L6.65385 10.7873L6.3113 10.5132L4.84976 9.21154L5.71755 7.72716L7.56731 8.36659L7.97837 8.50361L8.29808 8.20673C8.92894 7.62725 9.68254 7.18765 10.5132 6.92788L10.9243 6.79087L11.0156 6.35697L11.381 4.46154ZM12.2488 8.84615C10.2392 8.84615 8.59495 10.4904 8.59495 12.5C8.59495 14.5096 10.2392 16.1538 12.2488 16.1538C14.2584 16.1538 15.9026 14.5096 15.9026 12.5C15.9026 10.4904 14.2584 8.84615 12.2488 8.84615ZM12.2488 10.3077C13.4677 10.3077 14.4411 11.2811 14.4411 12.5C14.4411 13.7189 13.4677 14.6923 12.2488 14.6923C11.0299 14.6923 10.0565 13.7189 10.0565 12.5C10.0565 11.2811 11.0299 10.3077 12.2488 10.3077Z" fill="black"/>
</svg>
