<svg width="32" height="32" viewBox="0 0 32 32" fill="none" xmlns="http://www.w3.org/2000/svg">
<path fill-rule="evenodd" clip-rule="evenodd" d="M1.5 15.9896C1.5 7.99929 7.99414 1.5 16.0222 1.5C24.0059 1.5 30.5 7.95657 30.5 15.9896C30.5 23.9798 24.0059 30.5 16.0222 30.5C7.99414 30.5 1.5 23.9798 1.5 15.9896ZM18.8553 21.018C17.8056 21.018 17.1458 20.566 17.1458 19.2585V14.8966H20.2229V11.7443H17.1458V7.44318H14.5086C14.3866 9.33713 13.324 11.5242 10.7847 12.1843V14.8966H13.0911V19.906C13.0911 23.034 14.9836 24.3417 17.5247 24.3417H20.3448V21.018H18.8553Z" fill="black"/>
</svg>
