<svg width="32" height="32" viewBox="0 0 32 32" fill="none" xmlns="http://www.w3.org/2000/svg">
<path fill-rule="evenodd" clip-rule="evenodd" d="M5.125 30.5H26.875C28.876 30.5 30.5 28.876 30.5 26.875V5.125C30.5 3.124 28.876 1.5 26.875 1.5H5.125C3.124 1.5 1.5 3.124 1.5 5.125V26.875C1.5 28.876 3.124 30.5 5.125 30.5ZM23.2137 12.7882C23.2137 17.6965 19.4727 23.366 12.636 23.366C10.5407 23.366 8.58325 22.7498 6.94475 21.7057C7.23475 21.742 7.532 21.7565 7.82925 21.7565C9.56925 21.7565 11.1715 21.162 12.4475 20.1615C10.8235 20.1325 9.446 19.0595 8.97475 17.5805C9.1995 17.624 9.4315 17.6458 9.67075 17.6458C10.0115 17.6458 10.3377 17.6023 10.6495 17.5153C8.953 17.1745 7.66975 15.6665 7.66975 13.8685V13.8177C8.17 14.0933 8.74275 14.26 9.35175 14.2817C8.3585 13.6147 7.69875 12.4765 7.69875 11.186C7.69875 10.5045 7.88 9.8665 8.199 9.3155C10.0332 11.563 12.7737 13.0492 15.8622 13.2015C15.8042 12.926 15.768 12.6432 15.768 12.3532C15.768 10.3015 17.4355 8.634 19.4872 8.634C20.553 8.634 21.5173 9.0835 22.1987 9.8085C23.047 9.64175 23.8445 9.33725 24.5623 8.9095C24.2795 9.7795 23.6922 10.5118 22.9237 10.9685C23.6777 10.8742 24.3955 10.6785 25.0625 10.3812C24.5623 11.128 23.9315 11.7878 23.2065 12.3097C23.2137 12.4692 23.2137 12.6287 23.2137 12.7882Z" fill="black"/>
</svg>
